<?xml version="1.0" encoding="UTF-8" standalone="no"?>
<svg
   xmlns:dc="http://purl.org/dc/elements/1.1/"
   xmlns:cc="http://creativecommons.org/ns#"
   xmlns:rdf="http://www.w3.org/1999/02/22-rdf-syntax-ns#"
   xmlns:svg="http://www.w3.org/2000/svg"
   xmlns="http://www.w3.org/2000/svg"
   xmlns:sodipodi="http://sodipodi.sourceforge.net/DTD/sodipodi-0.dtd"
   xmlns:inkscape="http://www.inkscape.org/namespaces/inkscape"
   version="1.1"
   id="Layer_1"
   x="0px"
   y="0px"
   viewBox="0 0 115.98 122.88"
   style="enable-background:new 0 0 115.98 122.88"
   xml:space="preserve"
   sodipodi:docname="chat.svg"
   inkscape:version="1.0.2 (e86c870879, 2021-01-15)"><metadata
     id="metadata11"><rdf:RDF><cc:Work
         rdf:about=""><dc:format>image/svg+xml</dc:format><dc:type
           rdf:resource="http://purl.org/dc/dcmitype/StillImage" /></cc:Work></rdf:RDF></metadata><defs
     id="defs9" /><sodipodi:namedview
     pagecolor="#ffffff"
     bordercolor="#666666"
     borderopacity="1"
     objecttolerance="10"
     gridtolerance="10"
     guidetolerance="10"
     inkscape:pageopacity="0"
     inkscape:pageshadow="2"
     inkscape:window-width="1920"
     inkscape:window-height="1011"
     id="namedview7"
     showgrid="false"
     inkscape:zoom="6.4046225"
     inkscape:cx="57.990002"
     inkscape:cy="61.439999"
     inkscape:window-x="0"
     inkscape:window-y="0"
     inkscape:window-maximized="1"
     inkscape:current-layer="Layer_1"
     inkscape:document-rotation="0" /><g
     id="g4"><path
       d="M17.2,0h59.47c4.73,0,9.03,1.93,12.15,5.05c3.12,3.12,5.05,7.42,5.05,12.15v38.36c0,4.73-1.93,9.03-5.05,12.15 c-3.12,3.12-7.42,5.05-12.15,5.05H46.93L20.81,95.21c-1.21,1.04-3.04,0.9-4.08-0.32c-0.51-0.6-0.74-1.34-0.69-2.07l1.39-20.07H17.2 c-4.73,0-9.03-1.93-12.15-5.05C1.93,64.59,0,60.29,0,55.56V17.2c0-4.73,1.93-9.03,5.05-12.15C8.16,1.93,12.46,0,17.2,0L17.2,0z M102.31,27.98c3.37,0.65,6.39,2.31,8.73,4.65c3.05,3.05,4.95,7.26,4.95,11.9v38.36c0,4.64-1.89,8.85-4.95,11.9 c-3.05,3.05-7.26,4.95-11.9,4.95h-0.61l1.42,20.44l0,0c0.04,0.64-0.15,1.3-0.6,1.82c-0.91,1.07-2.52,1.19-3.58,0.28l-26.22-23.2 H35.01l17.01-17.3h36.04c7.86,0,14.3-6.43,14.3-14.3V29.11C102.35,28.73,102.34,28.35,102.31,27.98L102.31,27.98z M25.68,43.68 c-1.6,0-2.9-1.3-2.9-2.9c0-1.6,1.3-2.9,2.9-2.9h30.35c1.6,0,2.9,1.3,2.9,2.9c0,1.6-1.3,2.9-2.9,2.9H25.68L25.68,43.68z M25.68,29.32c-1.6,0-2.9-1.3-2.9-2.9c0-1.6,1.3-2.9,2.9-2.9H68.7c1.6,0,2.9,1.3,2.9,2.9c0,1.6-1.3,2.9-2.9,2.9H25.68L25.68,29.32z M76.66,5.8H17.2c-3.13,0-5.98,1.28-8.05,3.35C7.08,11.22,5.8,14.06,5.8,17.2v38.36c0,3.13,1.28,5.98,3.35,8.05 c2.07,2.07,4.92,3.35,8.05,3.35h3.34v0.01l0.19,0.01c1.59,0.11,2.8,1.49,2.69,3.08l-1.13,16.26L43.83,67.8 c0.52-0.52,1.24-0.84,2.04-0.84h30.79c3.13,0,5.98-1.28,8.05-3.35c2.07-2.07,3.35-4.92,3.35-8.05V17.2c0-3.13-1.28-5.98-3.35-8.05 C82.65,7.08,79.8,5.8,76.66,5.8L76.66,5.8z"
       id="path2"
       style="fill:#808080" /></g></svg>
