<?xml version="1.0" encoding="UTF-8" standalone="no"?>
<svg
   xmlns:dc="http://purl.org/dc/elements/1.1/"
   xmlns:cc="http://creativecommons.org/ns#"
   xmlns:rdf="http://www.w3.org/1999/02/22-rdf-syntax-ns#"
   xmlns:svg="http://www.w3.org/2000/svg"
   xmlns="http://www.w3.org/2000/svg"
   xmlns:sodipodi="http://sodipodi.sourceforge.net/DTD/sodipodi-0.dtd"
   xmlns:inkscape="http://www.inkscape.org/namespaces/inkscape"
   version="1.1"
   id="Layer_1"
   x="0px"
   y="0px"
   viewBox="0 0 122.88 116.67"
   style="enable-background:new 0 0 122.88 116.67"
   xml:space="preserve"
   sodipodi:docname="extension.svg"
   inkscape:version="1.0.2 (e86c870879, 2021-01-15)"><metadata
     id="metadata13"><rdf:RDF><cc:Work
         rdf:about=""><dc:format>image/svg+xml</dc:format><dc:type
           rdf:resource="http://purl.org/dc/dcmitype/StillImage" /></cc:Work></rdf:RDF></metadata><defs
     id="defs11" /><sodipodi:namedview
     pagecolor="#ffffff"
     bordercolor="#666666"
     borderopacity="1"
     objecttolerance="10"
     gridtolerance="10"
     guidetolerance="10"
     inkscape:pageopacity="0"
     inkscape:pageshadow="2"
     inkscape:window-width="1366"
     inkscape:window-height="699"
     id="namedview9"
     showgrid="false"
     inkscape:zoom="4.0713123"
     inkscape:cx="61.439999"
     inkscape:cy="58.334999"
     inkscape:window-x="0"
     inkscape:window-y="0"
     inkscape:window-maximized="1"
     inkscape:current-layer="Layer_1" /><style
     type="text/css"
     id="style2"><![CDATA[
	.st0{fill-rule:evenodd;clip-rule:evenodd;}
]]></style><g
     id="g6"><path
       class="st0"
       d="M84.55,116.66c2.49,0,4.53-1.99,4.53-4.41V88.08c1.55-13.03,7.27-9.16,14-5.13 c16.27,9.74,27.08-15.88,13.93-23.78c-10.32-6.2-14.79,4.46-22.35,3.36c-2.92-0.43-4.95-3.5-5.59-8.17V36.9 c0-2.43-2.04-4.41-4.53-4.41H63.73c-17.18-2.12-1.93-11.37-1.93-19.98C61.81,5.6,55.38,0,47.45,0c-7.92,0-15.19,5.6-15.19,12.51 c0,8.12,15.78,17.86-1.64,19.98H4.53C2.04,32.49,0,34.47,0,36.9v17.42c1.33,7.43,6.49,9.15,13.1,4.25 c2.23-1.66,5.99-3.59,8.71-3.59c7.09,0,12.85,6.25,12.85,13.96S28.91,84.6,21.81,84.6c-2.53,0-4.89-0.8-6.89-2.19 c0,0.59-12.4-10.85-14.92,3.15v26.71c0,2.43,2.04,4.41,4.53,4.41c13.97,0,27.92,0,41.88-0.01c0.55-2.55-1.24-5.47-2.92-8 c-13.22-19.93,38.21-21.92,24.99,0.62c-0.65,1.11-1.3,2.19-1.8,3.24c-0.63,1.31-1.05,2.91-0.96,4.14L84.55,116.66L84.55,116.66z"
       id="path4"
       style="fill:#ff6600;fill-opacity:0.90953445" /></g></svg>
