<?xml version="1.0" encoding="UTF-8" standalone="no"?>
<svg
   xmlns:dc="http://purl.org/dc/elements/1.1/"
   xmlns:cc="http://creativecommons.org/ns#"
   xmlns:rdf="http://www.w3.org/1999/02/22-rdf-syntax-ns#"
   xmlns:svg="http://www.w3.org/2000/svg"
   xmlns="http://www.w3.org/2000/svg"
   xmlns:sodipodi="http://sodipodi.sourceforge.net/DTD/sodipodi-0.dtd"
   xmlns:inkscape="http://www.inkscape.org/namespaces/inkscape"
   id="Layer_1"
   data-name="Layer 1"
   viewBox="0 0 94.27 122.88"
   version="1.1"
   sodipodi:docname="file-server.svg"
   inkscape:version="1.0.2 (e86c870879, 2021-01-15)">
  <metadata
     id="metadata11">
    <rdf:RDF>
      <cc:Work
         rdf:about="">
        <dc:format>image/svg+xml</dc:format>
        <dc:type
           rdf:resource="http://purl.org/dc/dcmitype/StillImage" />
      </cc:Work>
    </rdf:RDF>
  </metadata>
  <defs
     id="defs9" />
  <sodipodi:namedview
     pagecolor="#ffffff"
     bordercolor="#666666"
     borderopacity="1"
     objecttolerance="10"
     gridtolerance="10"
     guidetolerance="10"
     inkscape:pageopacity="0"
     inkscape:pageshadow="2"
     inkscape:window-width="1366"
     inkscape:window-height="699"
     id="namedview7"
     showgrid="false"
     inkscape:zoom="3.86556"
     inkscape:cx="47.134998"
     inkscape:cy="61.439999"
     inkscape:window-x="0"
     inkscape:window-y="0"
     inkscape:window-maximized="1"
     inkscape:current-layer="Layer_1" />
  <title
     id="title2">file-server</title>
  <path
     d="M18.22,52.52a2.68,2.68,0,0,1,0-5.33H39.05a2.68,2.68,0,0,1,0,5.33Zm76,68.81V57.73a2,2,0,0,0-.53-1,1.93,1.93,0,0,0-1.36-.57H56a2,2,0,0,0-1.93,1.93V121h0a1.91,1.91,0,0,0,.57,1.35,1.86,1.86,0,0,0,1.33.57H92.38a1.9,1.9,0,0,0,1.36-.57,2.09,2.09,0,0,0,.53-1l0,0Zm-20-17.65A5.36,5.36,0,1,1,68.83,109a5.36,5.36,0,0,1,5.36-5.36ZM87.13,67.17V72H61.27V67.17Zm0,13.36v4.83H74.39l-.13-.43-.16.4H61.27v-4.8Zm-9-64.35h8.73a6.27,6.27,0,0,1,6.24,6.24V45H87.71V22.42a.92.92,0,0,0-.89-.9H78.09V45H72.75V6.24a.87.87,0,0,0-.27-.63.85.85,0,0,0-.63-.27H6.24a.87.87,0,0,0-.63.27.93.93,0,0,0-.27.63V84.42a.92.92,0,0,0,.9.89h39.9v5.34H20.31v9.94a.87.87,0,0,0,.27.63.85.85,0,0,0,.62.27H46.14v5.34H21.2A6.27,6.27,0,0,1,15,100.59V90.65H6.24A6.25,6.25,0,0,1,0,84.42V6.24A6.25,6.25,0,0,1,6.24,0H71.85a6.25,6.25,0,0,1,6.24,6.24v9.94ZM18.22,24a2.55,2.55,0,0,1-2.44-2.66,2.56,2.56,0,0,1,2.44-2.67H59.88a2.56,2.56,0,0,1,2.43,2.67A2.55,2.55,0,0,1,59.88,24Zm0,14.29a2.68,2.68,0,0,1,0-5.34H59.88a2.68,2.68,0,0,1,0,5.34Z"
     id="path4"
     style="fill:#ff6600;fill-opacity:0.87358099" />
</svg>
