<?xml version="1.0" encoding="UTF-8" standalone="no"?>
<svg
   xmlns:dc="http://purl.org/dc/elements/1.1/"
   xmlns:cc="http://creativecommons.org/ns#"
   xmlns:rdf="http://www.w3.org/1999/02/22-rdf-syntax-ns#"
   xmlns:svg="http://www.w3.org/2000/svg"
   xmlns="http://www.w3.org/2000/svg"
   xmlns:sodipodi="http://sodipodi.sourceforge.net/DTD/sodipodi-0.dtd"
   xmlns:inkscape="http://www.inkscape.org/namespaces/inkscape"
   version="1.1"
   id="Layer_1"
   x="0px"
   y="0px"
   width="122.879px"
   height="109.105px"
   viewBox="0 0 122.879 109.105"
   enable-background="new 0 0 122.879 109.105"
   xml:space="preserve"
   sodipodi:docname="mailbox.svg"
   inkscape:version="1.0.2 (e86c870879, 2021-01-15)"><metadata
     id="metadata11"><rdf:RDF><cc:Work
         rdf:about=""><dc:format>image/svg+xml</dc:format><dc:type
           rdf:resource="http://purl.org/dc/dcmitype/StillImage" /></cc:Work></rdf:RDF></metadata><defs
     id="defs9" /><sodipodi:namedview
     pagecolor="#ffffff"
     bordercolor="#666666"
     borderopacity="1"
     objecttolerance="10"
     gridtolerance="10"
     guidetolerance="10"
     inkscape:pageopacity="0"
     inkscape:pageshadow="2"
     inkscape:window-width="1366"
     inkscape:window-height="699"
     id="namedview7"
     showgrid="false"
     inkscape:zoom="4.3536042"
     inkscape:cx="61.439499"
     inkscape:cy="54.552502"
     inkscape:window-x="0"
     inkscape:window-y="0"
     inkscape:window-maximized="1"
     inkscape:current-layer="Layer_1"
     inkscape:document-rotation="0" /><g
     id="g4"><path
       d="M19.046,72.384c-1.504,0-2.723-1.219-2.723-2.724V64.02c0-1.504,1.219-2.723,2.723-2.723c1.504,0,2.724,1.219,2.724,2.723 v2.918h17.534h28.279V26.81c-1.508-6.206-4.098-11.113-7.817-14.661l-0.002-0.002l-0.002-0.003l-0.003-0.002l-0.003-0.002 l-0.002-0.002l-0.002-0.002c-0.049-0.047-0.099-0.094-0.148-0.14l-0.002-0.002l-0.002-0.002l-0.003-0.002l-0.003-0.002 l-0.002-0.002l-0.003-0.003l-0.002-0.002l-0.003-0.002l-0.002-0.002l-0.147-0.136l-0.003-0.002l-0.002-0.002l-0.003-0.003 l-0.003-0.002l-0.002-0.003l-0.003-0.002l-0.004-0.004l-0.003-0.002l-0.003-0.002l-0.003-0.002l-0.002-0.002l-0.002-0.002 c-0.052-0.047-0.104-0.094-0.155-0.141l-0.003-0.002l-0.003-0.003l-0.006-0.006l-0.002-0.002l-0.003-0.003l-0.003-0.002 l-0.005-0.005l-0.002-0.003l-0.002-0.002l-0.148-0.131l-0.002-0.002l-0.005-0.005l-0.002-0.002l-0.003-0.002l-0.002-0.002 l-0.008-0.007l-0.002-0.002l-0.002-0.002c-0.048-0.042-0.097-0.083-0.145-0.125l-0.002-0.002l-0.002-0.002l-0.002-0.002 l-0.003-0.002l-0.002-0.002l-0.002-0.002l-0.011-0.009l-0.002-0.002l-0.003-0.002l-0.005-0.005l-0.002-0.002l-0.003-0.002 l-0.002-0.002l-0.002-0.002l-0.146-0.124l-0.002-0.002l-0.002-0.002l-0.006-0.005l-0.007-0.006l-0.088-0.073l-0.092-0.076 l-0.08-0.065l-0.014-0.011l-0.017-0.014l-0.074-0.06l-0.097-0.077l-0.101-0.08l-0.007-0.005l-0.003-0.002L58.1,10.709l-0.002-0.002 l-0.002-0.002l-0.003-0.002l-0.149-0.116l-0.002-0.001l-0.002-0.002l-0.002-0.002l-0.006-0.005l-0.001-0.001l-0.115-0.087 l-0.008-0.006l-0.072-0.055l-0.002-0.001l-0.105-0.079l-0.091-0.067l-0.096-0.07l-0.101-0.073l-0.107-0.076l-0.088-0.063l-0.001,0 L56.998,9.9l-0.051-0.036l-0.003-0.002l-0.139-0.094l-0.065-0.044L56.612,9.64l-0.08-0.052l-0.12-0.078l-0.087-0.056l-0.129-0.082 l-0.074-0.046l-0.141-0.087l-0.016-0.009l-0.047-0.029L55.771,9.11l-0.002-0.002l-0.002-0.001l-0.067-0.041L55.586,9l-0.005-0.003 l-0.006-0.003l-0.094-0.055l-0.001,0l-0.002-0.002l-0.107-0.062l-0.01-0.006l-0.015-0.008L55.274,8.82l-0.156-0.088l-0.056-0.031 l-0.168-0.092l-0.05-0.027l-0.005-0.003l-0.161-0.086l-0.056-0.029l-0.149-0.079L54.39,8.342L54.387,8.34l-0.144-0.073 l-0.069-0.035l-0.16-0.08l-0.007-0.003l-0.056-0.028h0l-0.173-0.084l-0.007-0.003l-0.041-0.02l-0.004-0.002l-0.002-0.001 L53.56,7.934L53.55,7.93l-0.058-0.027L53.33,7.828L53.26,7.796l-0.172-0.077l-0.058-0.025l-0.175-0.076l-0.061-0.026l-0.17-0.072 l-0.002-0.001l-0.001,0l-0.066-0.028l-0.16-0.066L52.388,7.42L52.32,7.392l-0.003-0.001L52.314,7.39l-0.002-0.001l-0.003-0.001 l-0.003-0.001l-0.002-0.001L52.3,7.384l-0.003-0.001l-0.002-0.001l-0.097-0.039l-0.002-0.001L52.192,7.34l-0.003-0.001 l-0.002-0.001l-0.003-0.001L52.18,7.336l-0.002-0.001l-0.003-0.001l-0.003-0.001l-0.002-0.001L52.166,7.33l-0.003-0.001 L52.16,7.328l-0.003-0.001l-0.003-0.001l-0.002-0.001l-0.003-0.001l-0.003-0.001L52.143,7.32L52.14,7.319l-0.003-0.001 l-0.003-0.001l-0.045-0.018l-0.003-0.001l-0.003-0.001l-0.003-0.001l-0.003-0.001l-0.003-0.001L52.07,7.292l-0.003-0.001 l-0.003-0.001L52.06,7.288l-0.003-0.001l-0.003-0.002l-0.003-0.001l-0.003-0.001l-0.003-0.001L52.041,7.28l-0.083-0.033 l-0.003-0.001l-0.003-0.001l-0.003-0.001l-0.003-0.001l-0.004-0.001L51.938,7.24l-0.003-0.001l-0.003-0.001l-0.004-0.001 l-0.003-0.001l-0.003-0.001l-0.003-0.002l-0.003-0.001L51.913,7.23l-0.003-0.001l-0.003-0.001l-0.003-0.001l-0.003-0.001 l-0.003-0.002l-0.003-0.001L51.89,7.222L51.887,7.22l-0.003-0.001l-0.029-0.011l-0.003-0.001l-0.003-0.001l-0.003-0.001 l-0.003-0.001l-0.003-0.001L51.834,7.2l-0.003-0.001l-0.003-0.002l-0.003-0.001l-0.004-0.001l-0.003-0.001l-0.003-0.001 l-0.003-0.001l-0.006-0.003l-0.003-0.001l-0.003-0.001L51.674,7.14l-0.003-0.002l-0.007-0.002l-0.003-0.001l-0.003-0.001 l-0.003-0.001l-0.003-0.001l-0.003-0.002l-0.003-0.001l-0.004-0.001l-0.03-0.012l-0.003-0.001l-0.004-0.001l-0.003-0.001 L51.597,7.11l-0.003-0.001L51.59,7.107l-0.003-0.001l-0.003-0.001L51.58,7.104l-0.003-0.001l-0.003-0.001L51.569,7.1l-0.003-0.001 l-0.003-0.001l-0.003-0.001l-0.004-0.001l-0.079-0.029l-0.003-0.002l-0.003-0.001L51.462,7.06l-0.004-0.001l-0.003-0.001 l-0.003-0.001l-0.003-0.002l-0.003-0.001l-0.003-0.001l-0.003-0.001L51.435,7.05l-0.003-0.001l-0.003-0.001l-0.004-0.001 L51.42,7.045l-0.003-0.001l-0.003-0.001L51.41,7.041L51.407,7.04l-0.003-0.001L51.4,7.037l-0.004-0.001l-0.003-0.001l-0.003-0.001 l-0.017-0.006l-0.003-0.001l-0.003-0.001l-0.003-0.001l-0.003-0.001l-0.003-0.001L51.352,7.02l-0.003-0.001l-0.003-0.001 l-0.003-0.001l-0.003-0.001l-0.003-0.001l-0.004-0.001l-0.003-0.001L51.325,7.01l-0.003-0.001l-0.007-0.002l-0.003-0.001 l-0.095-0.034L51.213,6.97l-0.017-0.006l-0.003-0.001L51.19,6.962L51.187,6.96l-0.003-0.001L51.18,6.958l-0.003-0.001l-0.003-0.001 L51.17,6.954l-0.003-0.001l-0.003-0.001L51.16,6.951L51.156,6.95l-0.045-0.016l-0.003-0.001l-0.003-0.001L51.101,6.93l-0.004-0.001 l-0.003-0.001L51.09,6.926l-0.003-0.001l-0.003-0.001l-0.017-0.006l-0.003-0.001L51.06,6.916l-0.092-0.032l-0.003-0.001 L50.96,6.881L50.957,6.88l-0.003-0.001L50.95,6.877l-0.003-0.001l-0.003-0.001L50.94,6.874l-0.003-0.001l-0.003-0.001L50.93,6.87 l-0.003-0.001l-0.003-0.001l-0.004-0.001l-0.003-0.001l-0.003-0.001l-0.003-0.001l-0.003-0.001l-0.003-0.001l-0.003-0.001 l-0.003-0.001l-0.003-0.001L50.88,6.854l-0.003-0.001l-0.003-0.002L50.87,6.85l-0.003-0.001l-0.003-0.001l-0.004-0.001 l-0.003-0.001l-0.003-0.001l-0.004-0.001l-0.003-0.001L50.841,6.84l-0.004-0.001l-0.004-0.001l-0.003-0.001l-0.004-0.001 l-0.004-0.001L50.82,6.833l-0.004-0.001l-0.119-0.04L50.693,6.79L50.69,6.789l-0.004-0.001l-0.003-0.001l-0.003-0.001l-0.004-0.001 l-0.003-0.001l-0.003-0.001L50.665,6.78l-0.003-0.001l-0.003-0.001l-0.004-0.001L50.65,6.775l-0.031-0.01l-0.003-0.001 l-0.003-0.001l-0.003-0.001l-0.003-0.001l-0.004-0.001l-0.003-0.001l-0.003-0.001l-0.003-0.001l-0.003-0.001l-0.003-0.001 l-0.004-0.001l-0.003-0.001L50.574,6.75l-0.003-0.001l-0.003-0.001l-0.003-0.001l-0.007-0.002l-0.003-0.001l-0.095-0.031 l-0.003-0.001L50.451,6.71l-0.003-0.001l-0.003,0l-0.003-0.002l-0.004-0.001l-0.003-0.001L50.43,6.703l-0.003-0.001l-0.003-0.001 l-0.004-0.001l-0.003-0.001l-0.004-0.001l-0.003-0.001l-0.003-0.001l-0.004-0.001l-0.003-0.001l-0.004-0.001l-0.022-0.007 l-0.004-0.001l-0.003-0.001l-0.003-0.001L50.358,6.68l-0.003-0.001l-0.004-0.001l-0.004-0.001l-0.003-0.001L50.34,6.674 l-0.004-0.001l-0.003-0.001l-0.007-0.002l-0.004-0.001l-0.122-0.039l-0.004-0.001l-0.003-0.001L50.19,6.626l-0.004-0.001 l-0.003-0.001l-0.003-0.001l-0.004-0.001L50.172,6.62l-0.003-0.001l-0.004-0.001l-0.003-0.001l-0.003-0.001l-0.004-0.001 l-0.003-0.001l-0.004-0.001l-0.004-0.001l-0.027-0.009l-0.004-0.001l-0.003-0.001L50.105,6.6l-0.003-0.001l-0.003-0.001 l-0.004-0.001l-0.003,0l-0.003-0.001l-0.004-0.001l-0.003-0.001l-0.004-0.001l-0.003-0.001l-0.004-0.001l-0.003-0.001l-0.003-0.001 l-0.004-0.001l-0.003-0.001l-0.121-0.037l-0.003-0.001l-0.003-0.001l-0.004-0.001L49.92,6.542l-0.004-0.001L49.913,6.54 l-0.003-0.001l-0.004-0.001l-0.003-0.001l-0.003-0.001l-0.003-0.001l-0.004-0.001l-0.003-0.001l-0.026-0.008l-0.003-0.001 l-0.004-0.001L49.85,6.521L49.847,6.52l-0.003-0.001l-0.004-0.001l-0.004-0.001l-0.003-0.001l-0.004-0.001l-0.004-0.001 l-0.003-0.001l-0.004-0.001l-0.004,0L49.81,6.509l-0.003-0.001l-0.004-0.001l-0.127-0.038l-0.003-0.001l-0.004-0.001l-0.003-0.001 l-0.004-0.001l-0.004-0.001l-0.004-0.001l-0.003-0.001L49.646,6.46l-0.004-0.001l-0.004-0.001l-0.004-0.001l-0.003-0.001 l-0.004-0.001l-0.003-0.001L49.611,6.45l-0.003-0.001l-0.004-0.001L49.6,6.446l-0.004-0.001l-0.004-0.001l-0.003-0.001 l-0.004-0.001l-0.003,0L49.577,6.44l-0.003-0.001l-0.004-0.001l-0.003-0.001l-0.004-0.001l-0.004-0.001L49.55,6.432l-0.003-0.001 L49.543,6.43l-0.011-0.003l-0.004-0.001l-0.115-0.033l-0.004-0.001L49.406,6.39l-0.004,0l-0.004-0.001l-0.004-0.001L49.39,6.386 l-0.004-0.001l-0.003-0.001l-0.004-0.001l-0.004-0.001l-0.003-0.001l-0.004-0.001l-0.018-0.005l-0.003-0.001l-0.004-0.001 l-0.003-0.001L49.334,6.37L49.33,6.369l-0.004-0.001l-0.003-0.001l-0.004-0.001l-0.004-0.001l-0.004-0.001l-0.004-0.001 L49.15,6.318l-0.004-0.001l-0.004-0.001l-0.003-0.001l-0.004,0L49.13,6.313l-0.004-0.001l-0.004-0.001l-0.004,0l-0.004-0.001 l-0.004-0.001l-0.004-0.001l-0.004-0.001l-0.011-0.003l-0.004-0.001L49.084,6.3l-0.004,0l-0.004-0.001l-0.004-0.001l-0.004-0.001 l-0.004-0.001l-0.004-0.001l-0.004-0.001l-0.004-0.001l-0.004-0.001L49.045,6.29l-0.004-0.001l-0.004-0.001l-0.004-0.001 L49.03,6.285l-0.004-0.001l-0.004-0.001l-0.004-0.001l-0.004-0.001L49.01,6.28l-0.004-0.001l-0.004-0.001l-0.004-0.001 l-0.008-0.002l-0.004-0.001l-0.09-0.024l-0.004-0.001l-0.004-0.001l-0.004-0.001L48.88,6.245l-0.004-0.001l-0.004-0.001 l-0.004-0.001l-0.004-0.001L48.861,6.24l-0.004-0.001l-0.004-0.001l-0.004-0.001l-0.004,0l-0.004-0.001l-0.014-0.003L48.824,6.23 L48.82,6.229l-0.004-0.001l-0.004-0.001l-0.004-0.001l-0.004-0.001L48.8,6.224l-0.004-0.001l-0.004-0.001l-0.004-0.001L48.784,6.22 L48.78,6.219l-0.004-0.001l-0.004-0.001l-0.004-0.001l-0.004-0.001l-0.004,0l-0.004-0.001l-0.004-0.001L48.749,6.21l-0.004,0 L48.74,6.208l-0.004,0l-0.004-0.001l-0.004-0.001l-0.004-0.001l-0.096-0.025l-0.004-0.001l-0.007-0.002l-0.004-0.001l-0.004,0 l-0.004-0.001l-0.004,0l-0.004-0.001L48.593,6.17l-0.004-0.001l-0.004-0.001l-0.004-0.001l-0.004-0.001l-0.004-0.001L48.57,6.164 L48.516,6.15l-0.012-0.003c-0.149-0.038-0.3-0.075-0.451-0.111l-0.012-0.002l-0.024-0.006l-0.012-0.002l-0.012-0.003L47.981,6.02 l-0.216-0.05l-0.012-0.003l-0.055-0.012l-0.221-0.049l-0.055-0.012L47.2,5.845l-0.056-0.012l-0.168-0.035L46.92,5.787l-0.056-0.012 l-0.003,0l-0.014-0.003l-0.003,0l-0.004-0.001l-0.147-0.029l-0.004,0l-0.003,0l-0.003-0.001l-0.004-0.001l-0.003,0l-0.004,0 l-0.003-0.001l-0.003,0l-0.004,0l-0.003-0.001l-0.003,0l-0.004,0l-0.003-0.001l-0.003-0.001h-0.004L46.583,5.72l-0.228-0.043 l-0.057-0.01L46.07,5.626l-0.057-0.011l-0.23-0.04l-0.058-0.009l-0.173-0.029l-0.059-0.009l-0.058-0.009L45.378,5.51l-0.117-0.018 l-0.058-0.009l-0.059-0.009l-0.058-0.009l-0.118-0.018c-3.94,0.025-7.653,1.035-10.902,2.794c-3.427,1.855-6.342,4.536-8.471,7.768 c-0.822,1.251-2.504,1.599-3.755,0.776c-1.251-0.822-1.599-2.503-0.777-3.755c2.63-3.992,6.219-7.297,10.429-9.576 C35.559,1.252,40.201,0,45.116,0H89.33c9.229,0,17.617,3.774,23.697,9.854c6.078,6.079,9.852,14.467,9.852,23.696v36.11 c0,1.505-1.219,2.724-2.723,2.724H94.695v7.819c0,1.244-0.512,2.381-1.336,3.211l-0.018,0.017c-0.83,0.821-1.963,1.331-3.203,1.331 H69.689v24.344h-8.103V84.762H41.138c-1.249,0-2.385-0.513-3.21-1.337l-0.005-0.006l-0.005,0.006 c-0.825-0.825-1.336-1.965-1.336-3.222v-7.819H19.046L19.046,72.384z M3.836,19.386h45.032c0.515,0,1.004,0.105,1.454,0.292 c0.468,0.194,0.889,0.478,1.247,0.826l0.019,0.019c0.352,0.354,0.632,0.773,0.823,1.234c0.189,0.458,0.293,0.955,0.293,1.467V54.17 c0,0.389-0.06,0.771-0.172,1.133c-0.103,0.335-0.252,0.649-0.441,0.938c-0.046,0.101-0.1,0.197-0.16,0.287l-0.034,0.048 c-0.071,0.101-0.151,0.197-0.241,0.287l-0.003,0.003c-0.08,0.08-0.161,0.146-0.245,0.206c-0.023,0.017-0.046,0.031-0.071,0.045 l-0.072,0.047c-0.324,0.264-0.693,0.476-1.091,0.623c-0.411,0.151-0.852,0.235-1.306,0.235H3.836c-0.516,0-1.005-0.105-1.455-0.292 c-0.468-0.194-0.889-0.479-1.246-0.826l-0.009-0.009l-0.002,0.002c-0.354-0.354-0.638-0.775-0.833-1.244 C0.103,55.197,0,54.703,0,54.185V23.238c0-0.519,0.103-1.013,0.292-1.468c0.195-0.47,0.479-0.89,0.833-1.244 c0.019-0.019,0.038-0.036,0.058-0.053c0.345-0.333,0.746-0.598,1.187-0.781c0.399-0.166,0.828-0.265,1.277-0.287 C3.707,19.393,3.771,19.386,3.836,19.386L3.836,19.386z M4.071,50.722L17.56,37.194L4.071,26.197V50.722L4.071,50.722z M20.726,39.787L6.619,53.934h39.384L32.534,39.805l-4.452,3.79l0,0.001c-0.37,0.327-0.838,0.497-1.312,0.501 c-0.459,0.005-0.925-0.146-1.311-0.461L20.726,39.787L20.726,39.787z M35.646,37.161l12.973,13.609V26.112L35.646,37.161 L35.646,37.161z M7.168,23.472l19.56,15.95l18.711-15.95H7.168L7.168,23.472z M89.248,72.384H70.307h-28.28v6.931h47.221V72.384 L89.248,72.384z M73.029,66.938h18.943h25.461V33.55c0-7.726-3.164-14.75-8.258-19.846C104.08,8.609,97.057,5.447,89.33,5.447 H60.116l0.056,0.04l0.057,0.039l0.011,0.008l0.101,0.071l0.056,0.04l0.057,0.04l0.002,0.002L60.614,5.8l0.006,0.004l0.055,0.041 l0.003,0.002l0.006,0.005l0.148,0.108l0.006,0.004l0.002,0.002l0.056,0.041l0.055,0.041l0.003,0.002l0.004,0.002l0.001,0l0.1,0.076 l0.007,0.006l0.001,0l0.136,0.104l0.002,0.002l0.002,0.001l0.091,0.07l0.156,0.122l0.061,0.048l0.004,0.002l0.002,0.002 l0.006,0.004l0.003,0.002l0.003,0.002l0.009,0.006l0.003,0.002l0.122,0.097l0.003,0.002l0.003,0.002l0.009,0.007l0.002,0.002 l0.003,0.002L61.69,6.62l0.003,0.002l0.003,0.002l0.003,0.002l0.003,0.002l0.05,0.041l0.002,0.001l0.001,0.001l0.155,0.125 l0.064,0.053l0.002,0.001l0.003,0.002l0.003,0.003l0.003,0.002l0.003,0.003l0.003,0.002l0.002,0.001l0.142,0.119l0.004,0.002 l0.002,0.002l0.006,0.005l0.004,0.002l0.002,0.002l0.004,0.002l0.002,0.002l0.004,0.002l0.002,0.002l0.002,0.001l0.004,0.003 l0.029,0.025l0.004,0.003l0.002,0.002l0.004,0.003l0.004,0.002l0.002,0.003l0.004,0.002l0.004,0.003l0.002,0.002 c0.057,0.047,0.113,0.095,0.168,0.143l0.002,0.002l0.004,0.003l0.004,0.003l0.002,0.002l0.004,0.002l0.006,0.005l0.002,0.003 l0.004,0.002l0.004,0.003l0.002,0.002l0.004,0.003c0.051,0.045,0.104,0.09,0.156,0.136l0.002,0.002l0.006,0.005l0.004,0.002 L62.6,7.381l0.002,0.003l0.004,0.002l0.004,0.002l0.002,0.003l0.004,0.003l0.002,0.003l0.016,0.012l0.018,0.015l0.002,0.003 l0.004,0.002l0.002,0.002l0.004,0.002l0.002,0.002l0.002,0.002l0.004,0.002l0.154,0.137l0.002,0.002l0.004,0.002l0.002,0.003 l0.004,0.002l0.004,0.003l0.002,0.002l0.014,0.011l0.002,0.002l0.01,0.009l0.004,0.002l0.002,0.003l0.16,0.145l0.002,0.002 l0.004,0.003l0.006,0.005l0.002,0.003l0.004,0.002l0.002,0.003l0.004,0.002l0.004,0.003l0.016,0.014l0.008,0.008l0.004,0.003 L63.09,7.82l0.004,0.003l0.004,0.003C63.16,7.884,63.223,7.942,63.285,8l0.004,0.003l0.004,0.003v0.001l0.002,0.001l0.004,0.003 l0.002,0.003l0.004,0.003l0.004,0.003l0.002,0.003l0.004,0.003l0.004,0.003c0.057,0.053,0.113,0.107,0.17,0.161l0.002,0.003 l0.004,0.002L63.496,8.2L63.5,8.203l0.004,0.003l0.002,0.003l0.004,0.003c4.543,4.332,7.656,10.193,9.406,17.512 c0.072,0.247,0.113,0.508,0.113,0.779V66.938L73.029,66.938z"
       id="path2"
       style="fill:#ff7f2a;fill-opacity:0.88687819" /></g></svg>
