<svg xmlns="http://www.w3.org/2000/svg"   viewBox="0 0 333333 333333" shape-rendering="geometricPrecision" text-rendering="geometricPrecision" image-rendering="optimizeQuality" fill-rule="evenodd" clip-rule="evenodd"><path d="M166667 0c46023 0 87690 18655 117851 48816s48816 71828 48816 117851-18655 87690-48816 117851-71828 48816-117851 48816-87690-18655-117851-48816S0 212690 0 166667 18655 78977 48816 48816 120644 0 166667 0zm-40764 260628c10431-9304 17591-22553 21087-36141 1409-5356 7160-27289 7160-27289 3721 7160 14716 13194 26274 13194 34619 0 59540-31800 59540-71437 0-37945-30954-66306-70760-66306-49560 0-75834 33265-75834 69463 0 16802 8965 37776 23286 44429 2143 1071 3326 564 3834-1579 339-1635 2312-9359 3214-13024 281-1128 169-2199-789-3326-4736-5751-8570-16351-8570-26161 0-25316 19170-49842 51815-49842 28191 0 47925 19170 47925 46685 0 31067-15674 52605-36085 52605-11276 0-19734-9304-16971-20749 3270-13644 9528-28361 9528-38171 0-8796-4680-16125-14547-16125-11558 0-20748 11896-20748 27909 0 10149 3383 17028 3383 17028s-11389 48094-13476 57059c-2312 9923-1409 23850-394 32927l1015 8908 113-56zM273296 60038c-27287-27287-64987-44165-106628-44165-41642 0-79341 16878-106628 44165s-44165 64987-44165 106628c0 41642 16878 79341 44165 106628s64987 44165 106628 44165c41642 0 79341-16878 106628-44165s44165-64987 44165-106628c0-41642-16878-79341-44165-106628z" fill="#bd081c" fill-rule="nonzero"/></svg>